<svg xmlns="http://www.w3.org/2000/svg" width="418.909" height="418.909" viewBox="0 0 110.836 110.836"><g style="display:inline"><path transform="translate(-12.315 -173.848)" d="M123.152 229.267a55.418 55.418 0 0 1-55.419 55.418 55.418 55.418 0 0 1-55.418-55.418 55.418 55.418 0 0 1 55.418-55.419 55.418 55.418 0 0 1 55.419 55.419z" style="display:inline;fill:#fff;fill-opacity:1;stroke:none;stroke-width:.1;stroke-linecap:round;stroke-linejoin:miter;stroke-miterlimit:4;stroke-dasharray:none;stroke-opacity:1;paint-order:markers stroke fill"/><g style="display:inline"><g style="fill:#8bc34a;fill-opacity:1" transform="translate(-7.583 -9.327)"><g style="fill:#8bc34a;fill-opacity:1"><path d="M42.393 51.387a1.5 1.5 0 0 0-1.477 1.521v18.076l-1.73-2.996a1.5 1.5 0 1 0-2.598 1.5l4.414 7.643.002.006a1.5 1.5 0 0 0 .848.855 1.5 1.5 0 0 0 .125.045 1.5 1.5 0 0 0 .068.018 1.5 1.5 0 0 0 .066.015 1.5 1.5 0 0 0 .12.02 1.5 1.5 0 0 0 .011.002 1.5 1.5 0 0 0 .004 0 1.5 1.5 0 0 0 .238.008 1.5 1.5 0 0 0 .149-.014 1.5 1.5 0 0 0 .142-.027 1.5 1.5 0 0 0 .006-.002 1.5 1.5 0 0 0 .024-.008 1.5 1.5 0 0 0 .09-.026 1.5 1.5 0 0 0 .26-.115 1.5 1.5 0 0 0 .665-.758l4.424-7.662a1.5 1.5 0 1 0-2.6-1.5l-1.728 2.994V52.908a1.5 1.5 0 0 0-1.523-1.521zM56.06 51.387a1.5 1.5 0 0 0-.044.004 1.5 1.5 0 0 0-.032.002 1.5 1.5 0 0 0-.027.002 1.5 1.5 0 0 0-.092.01 1.5 1.5 0 0 0-.136.025 1.5 1.5 0 0 0-.086.025 1.5 1.5 0 0 0-.028.008 1.5 1.5 0 0 0-.136.05 1.5 1.5 0 0 0-.133.067 1.5 1.5 0 0 0-.67.768l-4.42 7.654a1.5 1.5 0 1 0 2.598 1.5l1.73-2.996v18.076a1.5 1.5 0 1 0 3 0V58.508l1.729 2.994a1.5 1.5 0 1 0 2.6-1.5l-4.415-7.645a1.5 1.5 0 0 0-.715-.798 1.5 1.5 0 0 0-.137-.063 1.5 1.5 0 0 0-.136-.047 1.5 1.5 0 0 0-.004-.002 1.5 1.5 0 0 0-.102-.025 1.5 1.5 0 0 0-.013-.002 1.5 1.5 0 0 0-.121-.02 1.5 1.5 0 0 0-.012-.002 1.5 1.5 0 0 0-.004 0 1.5 1.5 0 0 0-.147-.01 1.5 1.5 0 0 0-.046-.001z" style="color:#000;font-style:normal;font-variant:normal;font-weight:400;font-stretch:normal;font-size:medium;line-height:normal;font-family:sans-serif;font-variant-ligatures:normal;font-variant-position:normal;font-variant-caps:normal;font-variant-numeric:normal;font-variant-alternates:normal;font-feature-settings:normal;text-indent:0;text-align:start;text-decoration:none;text-decoration-line:none;text-decoration-style:solid;text-decoration-color:#000;letter-spacing:normal;word-spacing:normal;text-transform:none;writing-mode:lr-tb;direction:ltr;text-orientation:mixed;dominant-baseline:auto;baseline-shift:baseline;text-anchor:start;white-space:normal;shape-padding:0;clip-rule:nonzero;display:inline;overflow:visible;visibility:visible;opacity:1;isolation:auto;mix-blend-mode:normal;color-interpolation:sRGB;color-interpolation-filters:linearRGB;solid-color:#000;solid-opacity:1;vector-effect:none;fill:#8bc34a;fill-opacity:1;fill-rule:nonzero;stroke:none;stroke-width:3;stroke-linecap:round;stroke-linejoin:miter;stroke-miterlimit:4;stroke-dasharray:none;stroke-dashoffset:0;stroke-opacity:1;color-rendering:auto;image-rendering:auto;shape-rendering:auto;text-rendering:auto;enable-background:accumulate" transform="matrix(-1 0 0 1 126 0)"/></g><g style="fill:#8bc34a;fill-opacity:1"><path style="color:#000;font-style:normal;font-variant:normal;font-weight:400;font-stretch:normal;font-size:medium;line-height:normal;font-family:sans-serif;font-variant-ligatures:normal;font-variant-position:normal;font-variant-caps:normal;font-variant-numeric:normal;font-variant-alternates:normal;font-feature-settings:normal;text-indent:0;text-align:start;text-decoration:none;text-decoration-line:none;text-decoration-style:solid;text-decoration-color:#000;letter-spacing:normal;word-spacing:normal;text-transform:none;writing-mode:lr-tb;direction:ltr;text-orientation:mixed;dominant-baseline:auto;baseline-shift:baseline;text-anchor:start;white-space:normal;shape-padding:0;clip-rule:nonzero;display:inline;overflow:visible;visibility:visible;opacity:1;isolation:auto;mix-blend-mode:normal;color-interpolation:sRGB;color-interpolation-filters:linearRGB;solid-color:#000;solid-opacity:1;vector-effect:none;fill:#8bc34a;fill-opacity:1;fill-rule:nonzero;stroke:none;stroke-width:3;stroke-linecap:round;stroke-linejoin:miter;stroke-miterlimit:4;stroke-dasharray:none;stroke-dashoffset:0;stroke-opacity:1;color-rendering:auto;image-rendering:auto;shape-rendering:auto;text-rendering:auto;enable-background:accumulate" d="M69.91 51.387a1.5 1.5 0 0 0-1.477 1.521v18.076l-1.73-2.996a1.5 1.5 0 1 0-2.598 1.5l4.414 7.643.002.006a1.5 1.5 0 0 0 .847.855 1.5 1.5 0 0 0 .125.045 1.5 1.5 0 0 0 .069.018 1.5 1.5 0 0 0 .066.015 1.5 1.5 0 0 0 .12.02 1.5 1.5 0 0 0 .01.002 1.5 1.5 0 0 0 .005 0A1.5 1.5 0 0 0 70 78.1a1.5 1.5 0 0 0 .149-.014 1.5 1.5 0 0 0 .142-.027 1.5 1.5 0 0 0 .006-.002 1.5 1.5 0 0 0 .023-.008 1.5 1.5 0 0 0 .09-.026 1.5 1.5 0 0 0 .26-.115 1.5 1.5 0 0 0 .666-.758l4.424-7.662a1.5 1.5 0 1 0-2.6-1.5l-1.728 2.994V52.908a1.5 1.5 0 0 0-1.524-1.521zM83.577 51.387a1.5 1.5 0 0 0-.045.004 1.5 1.5 0 0 0-.03.002 1.5 1.5 0 0 0-.028.002 1.5 1.5 0 0 0-.092.01 1.5 1.5 0 0 0-.137.025 1.5 1.5 0 0 0-.086.025 1.5 1.5 0 0 0-.027.008 1.5 1.5 0 0 0-.137.05 1.5 1.5 0 0 0-.133.067 1.5 1.5 0 0 0-.67.768l-4.42 7.654a1.5 1.5 0 1 0 2.598 1.5l1.73-2.996v18.076a1.5 1.5 0 1 0 3 0V58.508l1.73 2.994a1.5 1.5 0 1 0 2.599-1.5l-4.414-7.645a1.5 1.5 0 0 0-.715-.798 1.5 1.5 0 0 0-.137-.063 1.5 1.5 0 0 0-.137-.047 1.5 1.5 0 0 0-.003-.002 1.5 1.5 0 0 0-.102-.025 1.5 1.5 0 0 0-.014-.002 1.5 1.5 0 0 0-.12-.02 1.5 1.5 0 0 0-.012-.002 1.5 1.5 0 0 0-.004 0 1.5 1.5 0 0 0-.147-.01 1.5 1.5 0 0 0-.047-.001z" transform="matrix(-1 0 0 1 126 0)"/></g><path d="M63 29.7c.676 0 .801.14 1.143.275.341.134.734.311 1.197.53.925.44 2.116 1.05 3.496 1.786 2.76 1.472 6.268 3.439 9.754 5.451 3.485 2.013 6.943 4.068 9.597 5.723a89.47 89.47 0 0 1 3.295 2.135c.422.29.772.542 1.059.771.287.229.473.266.81.852.338.585.278.764.333 1.127.054.362.097.79.138 1.3.082 1.021.149 2.36.201 3.922.106 3.127.159 7.147.159 11.172s-.053 8.048-.159 11.174a89.557 89.557 0 0 1-.2 3.922c-.042.51-.085.938-.14 1.3-.054.363.006.542-.331 1.128-.338.585-.524.623-.811.851-.287.229-.637.481-1.059.772a89.468 89.468 0 0 1-3.294 2.134c-2.655 1.655-6.113 3.71-9.598 5.723-3.486 2.012-6.994 3.978-9.754 5.45a89.693 89.693 0 0 1-3.496 1.786c-.463.22-.856.398-1.197.532-.342.134-.467.275-1.143.275-.676 0-.8-.141-1.14-.275a19.45 19.45 0 0 1-1.2-.532 89.806 89.806 0 0 1-3.494-1.787c-2.76-1.471-6.27-3.437-9.756-5.449-3.485-2.012-6.943-4.068-9.597-5.723a89.468 89.468 0 0 1-3.295-2.134c-.422-.291-.772-.543-1.059-.772-.287-.228-.47-.266-.809-.851-.337-.586-.277-.765-.332-1.127-.054-.363-.1-.79-.14-1.301a89.98 89.98 0 0 1-.2-3.922c-.105-3.126-.158-7.15-.158-11.174 0-4.025.053-8.045.159-11.172.052-1.563.117-2.9.199-3.922.04-.51.086-.938.14-1.3.055-.363-.005-.542.332-1.127.338-.586.522-.623.809-.852.287-.229.637-.48 1.059-.771a89.47 89.47 0 0 1 3.294-2.135c2.655-1.655 6.113-3.71 9.598-5.723 3.486-2.012 6.996-3.98 9.756-5.451a89.275 89.275 0 0 1 3.496-1.785c.463-.22.856-.397 1.197-.531.342-.134.465-.276 1.141-.276zm0 3.056c-.019.006-.027.004-.045.012-.232.09-.58.245-1.006.447a87.72 87.72 0 0 0-3.373 1.724c-2.713 1.447-6.203 3.402-9.666 5.4-3.463 2-6.902 4.046-9.512 5.673a87.717 87.717 0 0 0-3.177 2.056c-.388.268-.696.493-.89.649-.016.012-.018.02-.032.033-.004.02-.01.025-.014.045-.037.246-.08.626-.117 1.096-.075.938-.14 2.245-.191 3.78-.104 3.074-.157 7.075-.157 11.073 0 3.999.053 8 .157 11.072.052 1.537.116 2.845.191 3.784.038.469.08.849.117 1.095.003.02.01.026.014.045.014.013.016.021.031.033.195.156.503.38.89.647a87.348 87.348 0 0 0 3.178 2.059c2.61 1.626 6.05 3.672 9.512 5.671 3.463 2 6.953 3.954 9.666 5.4a87.72 87.72 0 0 0 3.373 1.725c.426.202.774.357 1.006.448.018.007.026.006.045.011.019-.006.026-.004.045-.011.232-.091.582-.246 1.008-.448a87.867 87.867 0 0 0 3.37-1.724c2.714-1.447 6.204-3.401 9.667-5.4 3.463-2 6.902-4.046 9.512-5.672a87.348 87.348 0 0 0 3.177-2.06c.388-.266.696-.49.89-.646.017-.012.02-.021.034-.035.004-.018.01-.024.014-.043.037-.246.077-.626.115-1.095a87.61 87.61 0 0 0 .193-3.784c.104-3.072.157-7.073.157-11.072 0-3.998-.053-8-.157-11.072a87.485 87.485 0 0 0-.193-3.781c-.038-.47-.078-.85-.115-1.096-.003-.02-.01-.024-.014-.043-.015-.014-.017-.022-.033-.035a17.216 17.216 0 0 0-.89-.649 87.717 87.717 0 0 0-3.178-2.056c-2.61-1.627-6.05-3.673-9.512-5.672-3.463-2-6.953-3.954-9.666-5.4a87.866 87.866 0 0 0-3.371-1.725 17.213 17.213 0 0 0-1.008-.447c-.019-.008-.026-.006-.045-.012z" style="color:#000;font-style:normal;font-variant:normal;font-weight:400;font-stretch:normal;font-size:medium;line-height:normal;font-family:sans-serif;font-variant-ligatures:normal;font-variant-position:normal;font-variant-caps:normal;font-variant-numeric:normal;font-variant-alternates:normal;font-feature-settings:normal;text-indent:0;text-align:start;text-decoration:none;text-decoration-line:none;text-decoration-style:solid;text-decoration-color:#000;letter-spacing:normal;word-spacing:normal;text-transform:none;writing-mode:lr-tb;direction:ltr;text-orientation:mixed;dominant-baseline:auto;baseline-shift:baseline;text-anchor:start;white-space:normal;shape-padding:0;clip-rule:nonzero;display:inline;overflow:visible;visibility:visible;opacity:1;isolation:auto;mix-blend-mode:normal;color-interpolation:sRGB;color-interpolation-filters:linearRGB;solid-color:#000;solid-opacity:1;vector-effect:none;fill:#8bc34a;fill-opacity:1;fill-rule:nonzero;stroke:none;stroke-width:3;stroke-linecap:round;stroke-linejoin:bevel;stroke-miterlimit:4;stroke-dasharray:none;stroke-dashoffset:0;stroke-opacity:1;paint-order:normal;color-rendering:auto;image-rendering:auto;shape-rendering:auto;text-rendering:auto;enable-background:accumulate"/><circle transform="scale(-1 1)" r="1.934" cy="64.745" cx="-76.759" style="fill:#8bc34a;fill-opacity:1;stroke:none;stroke-width:3;stroke-linecap:round;stroke-linejoin:bevel;stroke-miterlimit:4;stroke-dasharray:none;stroke-opacity:1;paint-order:normal"/><circle transform="scale(-1 1)" style="fill:#8bc34a;fill-opacity:1;stroke:none;stroke-width:3;stroke-linecap:round;stroke-linejoin:bevel;stroke-miterlimit:4;stroke-dasharray:none;stroke-opacity:1;paint-order:normal" cx="-49.242" cy="64.745" r="1.934"/></g></g></g></svg>