<?xml version="1.0" encoding="UTF-8" standalone="no"?>
<!-- Created with Inkscape (http://www.inkscape.org/) -->

<svg
   xmlns:dc="http://purl.org/dc/elements/1.1/"
   xmlns:cc="http://creativecommons.org/ns#"
   xmlns:rdf="http://www.w3.org/1999/02/22-rdf-syntax-ns#"
   xmlns:svg="http://www.w3.org/2000/svg"
   xmlns="http://www.w3.org/2000/svg"
   xmlns:sodipodi="http://sodipodi.sourceforge.net/DTD/sodipodi-0.dtd"
   xmlns:inkscape="http://www.inkscape.org/namespaces/inkscape"
   width="77.960472mm"
   height="77.960472mm"
   viewBox="0 0 77.960473 77.960472"
   version="1.1"
   id="svg8"
   inkscape:version="0.92.5 (2060ec1f9f, 2020-04-08)"
   sodipodi:docname="logoGreen.svg">
  <defs
     id="defs2" />
  <sodipodi:namedview
     id="base"
     pagecolor="#ffffff"
     bordercolor="#666666"
     borderopacity="1.0"
     inkscape:pageopacity="0.0"
     inkscape:pageshadow="2"
     inkscape:zoom="2.4018621"
     inkscape:cx="116.58452"
     inkscape:cy="121.70727"
     inkscape:document-units="mm"
     inkscape:current-layer="layer3"
     showgrid="false"
     showguides="true"
     inkscape:guide-bbox="true"
     inkscape:window-width="1920"
     inkscape:window-height="1015"
     inkscape:window-x="0"
     inkscape:window-y="0"
     inkscape:window-maximized="1">
    <sodipodi:guide
       position="41.683076,46.892305"
       orientation="-0.8660254,0.5"
       id="guide881"
       inkscape:locked="false"
       inkscape:label=""
       inkscape:color="rgb(0,0,255)" />
    <sodipodi:guide
       position="38.98024,65.874238"
       orientation="1,0"
       id="guide989"
       inkscape:locked="false" />
    <sodipodi:guide
       position="70.832087,38.980237"
       orientation="0,1"
       id="guide991"
       inkscape:locked="false" />
    <sodipodi:guide
       position="25.221901,56.918128"
       orientation="1,0"
       id="guide1051"
       inkscape:locked="false" />
    <sodipodi:guide
       position="52.738578,57.229698"
       orientation="1,0"
       id="guide1057"
       inkscape:locked="false" />
    <sodipodi:guide
       position="46.024226,27.177469"
       orientation="0,1"
       id="guide1111"
       inkscape:locked="false" />
    <sodipodi:guide
       position="61.643203,51.273796"
       orientation="0,1"
       id="guide1113"
       inkscape:locked="false" />
  </sodipodi:namedview>
  <metadata
     id="metadata5">
    <rdf:RDF>
      <cc:Work
         rdf:about="">
        <dc:format>image/svg+xml</dc:format>
        <dc:type
           rdf:resource="http://purl.org/dc/dcmitype/StillImage" />
        <dc:title />
      </cc:Work>
    </rdf:RDF>
  </metadata>
  <g
     inkscape:groupmode="layer"
     id="layer3"
     inkscape:label="Fundo"
     transform="translate(7.8002525,3.9344569)">
    <rect
       style="fill:#ffffff;fill-opacity:1;stroke:#000000;stroke-width:0.2;stroke-linecap:round;stroke-linejoin:miter;stroke-miterlimit:4;stroke-dasharray:none;stroke-opacity:1;paint-order:markers stroke fill"
       id="rect850"
       width="77.760475"
       height="77.760475"
       x="-7.7002525"
       y="-3.8344569" />
  </g>
  <g
     inkscape:label="Camada 1"
     inkscape:groupmode="layer"
     id="layer1"
     style="display:inline"
     transform="translate(-24.020059,-25.764762)"
     sodipodi:insensitive="true">
    <g
       id="g1139"
       style="fill:#8bc34a;fill-opacity:1">
      <g
         transform="matrix(-1,0,0,1,126.0006,0)"
         id="g1049"
         style="fill:#8bc34a;fill-opacity:1">
        <path
           inkscape:connector-curvature="0"
           id="path953"
           d="m 42.392578,51.386719 a 1.50015,1.50015 0 0 0 -1.476562,1.521484 v 18.076172 l -1.730469,-2.996094 a 1.50015,1.50015 0 1 0 -2.597656,1.5 l 4.414062,7.642578 0.002,0.0059 a 1.50015,1.50015 0 0 0 0.847656,0.855469 1.50015,1.50015 0 0 0 0.125,0.04492 1.50015,1.50015 0 0 0 0.06836,0.01758 1.50015,1.50015 0 0 0 0.06641,0.01562 1.50015,1.50015 0 0 0 0.119141,0.01953 1.50015,1.50015 0 0 0 0.01172,0.002 1.50015,1.50015 0 0 0 0.0039,0 1.50015,1.50015 0 0 0 0.238281,0.0078 1.50015,1.50015 0 0 0 0.148437,-0.01367 1.50015,1.50015 0 0 0 0.142579,-0.02734 1.50015,1.50015 0 0 0 0.0059,-0.002 1.50015,1.50015 0 0 0 0.02344,-0.0078 1.50015,1.50015 0 0 0 0.08984,-0.02539 1.50015,1.50015 0 0 0 0.259766,-0.115235 1.50015,1.50015 0 0 0 0.666015,-0.757812 l 4.423829,-7.66211 a 1.5006642,1.5006642 0 1 0 -2.59961,-1.5 l -1.728515,2.994141 V 52.908203 a 1.50015,1.50015 0 0 0 -1.523438,-1.521484 z"
           style="color:#000000;font-style:normal;font-variant:normal;font-weight:normal;font-stretch:normal;font-size:medium;line-height:normal;font-family:sans-serif;font-variant-ligatures:normal;font-variant-position:normal;font-variant-caps:normal;font-variant-numeric:normal;font-variant-alternates:normal;font-feature-settings:normal;text-indent:0;text-align:start;text-decoration:none;text-decoration-line:none;text-decoration-style:solid;text-decoration-color:#000000;letter-spacing:normal;word-spacing:normal;text-transform:none;writing-mode:lr-tb;direction:ltr;text-orientation:mixed;dominant-baseline:auto;baseline-shift:baseline;text-anchor:start;white-space:normal;shape-padding:0;clip-rule:nonzero;display:inline;overflow:visible;visibility:visible;opacity:1;isolation:auto;mix-blend-mode:normal;color-interpolation:sRGB;color-interpolation-filters:linearRGB;solid-color:#000000;solid-opacity:1;vector-effect:none;fill:#8bc34a;fill-opacity:1;fill-rule:nonzero;stroke:none;stroke-width:3;stroke-linecap:round;stroke-linejoin:miter;stroke-miterlimit:4;stroke-dasharray:none;stroke-dashoffset:0;stroke-opacity:1;color-rendering:auto;image-rendering:auto;shape-rendering:auto;text-rendering:auto;enable-background:accumulate" />
        <path
           inkscape:connector-curvature="0"
           id="path955"
           d="m 56.060547,51.386719 a 1.50015,1.50015 0 0 0 -0.04492,0.0039 1.50015,1.50015 0 0 0 -0.03125,0.002 1.50015,1.50015 0 0 0 -0.02734,0.002 1.50015,1.50015 0 0 0 -0.0918,0.0098 1.50015,1.50015 0 0 0 -0.136718,0.02539 1.50015,1.50015 0 0 0 -0.08594,0.02539 1.50015,1.50015 0 0 0 -0.02734,0.0078 1.50015,1.50015 0 0 0 -0.136718,0.05078 1.50015,1.50015 0 0 0 -0.132813,0.06641 1.50015,1.50015 0 0 0 -0.669922,0.767578 l -4.419922,7.654297 a 1.50015,1.50015 0 1 0 2.597657,1.5 l 1.730468,-2.996094 v 18.076172 a 1.50015,1.50015 0 1 0 3,0 v -18.07433 l 1.728516,2.994141 a 1.5006638,1.5006638 0 1 0 2.599609,-1.5 l -4.414062,-7.644531 a 1.50015,1.50015 0 0 0 -0.714844,-0.798828 1.50015,1.50015 0 0 0 -0.136719,-0.0625 1.50015,1.50015 0 0 0 -0.136718,-0.04687 1.50015,1.50015 0 0 0 -0.0039,-0.002 1.50015,1.50015 0 0 0 -0.101562,-0.02539 1.50015,1.50015 0 0 0 -0.01367,-0.002 1.50015,1.50015 0 0 0 -0.121094,-0.01953 1.50015,1.50015 0 0 0 -0.01172,-0.002 1.50015,1.50015 0 0 0 -0.0039,0 1.50015,1.50015 0 0 0 -0.146484,-0.0098 1.50015,1.50015 0 0 0 -0.04687,-0.002 z"
           style="color:#000000;font-style:normal;font-variant:normal;font-weight:normal;font-stretch:normal;font-size:medium;line-height:normal;font-family:sans-serif;font-variant-ligatures:normal;font-variant-position:normal;font-variant-caps:normal;font-variant-numeric:normal;font-variant-alternates:normal;font-feature-settings:normal;text-indent:0;text-align:start;text-decoration:none;text-decoration-line:none;text-decoration-style:solid;text-decoration-color:#000000;letter-spacing:normal;word-spacing:normal;text-transform:none;writing-mode:lr-tb;direction:ltr;text-orientation:mixed;dominant-baseline:auto;baseline-shift:baseline;text-anchor:start;white-space:normal;shape-padding:0;clip-rule:nonzero;display:inline;overflow:visible;visibility:visible;opacity:1;isolation:auto;mix-blend-mode:normal;color-interpolation:sRGB;color-interpolation-filters:linearRGB;solid-color:#000000;solid-opacity:1;vector-effect:none;fill:#8bc34a;fill-opacity:1;fill-rule:nonzero;stroke:none;stroke-width:3;stroke-linecap:round;stroke-linejoin:miter;stroke-miterlimit:4;stroke-dasharray:none;stroke-dashoffset:0;stroke-opacity:1;color-rendering:auto;image-rendering:auto;shape-rendering:auto;text-rendering:auto;enable-background:accumulate" />
      </g>
      <g
         transform="matrix(-1,0,0,1,126.0006,0)"
         id="g1055"
         style="fill:#8bc34a;fill-opacity:1">
        <path
           style="color:#000000;font-style:normal;font-variant:normal;font-weight:normal;font-stretch:normal;font-size:medium;line-height:normal;font-family:sans-serif;font-variant-ligatures:normal;font-variant-position:normal;font-variant-caps:normal;font-variant-numeric:normal;font-variant-alternates:normal;font-feature-settings:normal;text-indent:0;text-align:start;text-decoration:none;text-decoration-line:none;text-decoration-style:solid;text-decoration-color:#000000;letter-spacing:normal;word-spacing:normal;text-transform:none;writing-mode:lr-tb;direction:ltr;text-orientation:mixed;dominant-baseline:auto;baseline-shift:baseline;text-anchor:start;white-space:normal;shape-padding:0;clip-rule:nonzero;display:inline;overflow:visible;visibility:visible;opacity:1;isolation:auto;mix-blend-mode:normal;color-interpolation:sRGB;color-interpolation-filters:linearRGB;solid-color:#000000;solid-opacity:1;vector-effect:none;fill:#8bc34a;fill-opacity:1;fill-rule:nonzero;stroke:none;stroke-width:3;stroke-linecap:round;stroke-linejoin:miter;stroke-miterlimit:4;stroke-dasharray:none;stroke-dashoffset:0;stroke-opacity:1;color-rendering:auto;image-rendering:auto;shape-rendering:auto;text-rendering:auto;enable-background:accumulate"
           d="m 69.909256,51.386719 a 1.50015,1.50015 0 0 0 -1.476562,1.521484 v 18.076172 l -1.730469,-2.996094 a 1.50015,1.50015 0 1 0 -2.597656,1.5 l 4.414062,7.642578 0.002,0.0059 a 1.50015,1.50015 0 0 0 0.847656,0.855469 1.50015,1.50015 0 0 0 0.125,0.04492 1.50015,1.50015 0 0 0 0.06836,0.01758 1.50015,1.50015 0 0 0 0.06641,0.01562 1.50015,1.50015 0 0 0 0.119141,0.01953 1.50015,1.50015 0 0 0 0.01172,0.002 1.50015,1.50015 0 0 0 0.0039,0 1.50015,1.50015 0 0 0 0.238281,0.0078 1.50015,1.50015 0 0 0 0.148437,-0.01367 1.50015,1.50015 0 0 0 0.142579,-0.02734 1.50015,1.50015 0 0 0 0.0059,-0.002 1.50015,1.50015 0 0 0 0.02344,-0.0078 1.50015,1.50015 0 0 0 0.08984,-0.02539 1.50015,1.50015 0 0 0 0.259766,-0.115235 1.50015,1.50015 0 0 0 0.666015,-0.757812 l 4.423829,-7.66211 a 1.5006642,1.5006642 0 1 0 -2.59961,-1.5 L 71.43278,70.982462 V 52.908203 a 1.50015,1.50015 0 0 0 -1.523438,-1.521484 z"
           id="path963"
           inkscape:connector-curvature="0" />
        <path
           style="color:#000000;font-style:normal;font-variant:normal;font-weight:normal;font-stretch:normal;font-size:medium;line-height:normal;font-family:sans-serif;font-variant-ligatures:normal;font-variant-position:normal;font-variant-caps:normal;font-variant-numeric:normal;font-variant-alternates:normal;font-feature-settings:normal;text-indent:0;text-align:start;text-decoration:none;text-decoration-line:none;text-decoration-style:solid;text-decoration-color:#000000;letter-spacing:normal;word-spacing:normal;text-transform:none;writing-mode:lr-tb;direction:ltr;text-orientation:mixed;dominant-baseline:auto;baseline-shift:baseline;text-anchor:start;white-space:normal;shape-padding:0;clip-rule:nonzero;display:inline;overflow:visible;visibility:visible;opacity:1;isolation:auto;mix-blend-mode:normal;color-interpolation:sRGB;color-interpolation-filters:linearRGB;solid-color:#000000;solid-opacity:1;vector-effect:none;fill:#8bc34a;fill-opacity:1;fill-rule:nonzero;stroke:none;stroke-width:3;stroke-linecap:round;stroke-linejoin:miter;stroke-miterlimit:4;stroke-dasharray:none;stroke-dashoffset:0;stroke-opacity:1;color-rendering:auto;image-rendering:auto;shape-rendering:auto;text-rendering:auto;enable-background:accumulate"
           d="m 83.577225,51.386719 a 1.50015,1.50015 0 0 0 -0.04492,0.0039 1.50015,1.50015 0 0 0 -0.03125,0.002 1.50015,1.50015 0 0 0 -0.02734,0.002 1.50015,1.50015 0 0 0 -0.0918,0.0098 1.50015,1.50015 0 0 0 -0.136718,0.02539 1.50015,1.50015 0 0 0 -0.08594,0.02539 1.50015,1.50015 0 0 0 -0.02734,0.0078 1.50015,1.50015 0 0 0 -0.136718,0.05078 1.50015,1.50015 0 0 0 -0.132813,0.06641 1.50015,1.50015 0 0 0 -0.669922,0.767578 l -4.419922,7.654297 a 1.50015,1.50015 0 1 0 2.597657,1.5 l 1.730468,-2.996094 v 18.076172 a 1.50015,1.50015 0 1 0 3,0 v -18.07433 l 1.728516,2.994141 a 1.5006638,1.5006638 0 1 0 2.599609,-1.5 L 85.01473,52.357422 a 1.50015,1.50015 0 0 0 -0.714844,-0.798828 1.50015,1.50015 0 0 0 -0.136719,-0.0625 1.50015,1.50015 0 0 0 -0.136718,-0.04687 1.50015,1.50015 0 0 0 -0.0039,-0.002 1.50015,1.50015 0 0 0 -0.101562,-0.02539 1.50015,1.50015 0 0 0 -0.01367,-0.002 1.50015,1.50015 0 0 0 -0.121094,-0.01953 1.50015,1.50015 0 0 0 -0.01172,-0.002 1.50015,1.50015 0 0 0 -0.0039,0 1.50015,1.50015 0 0 0 -0.146484,-0.0098 1.50015,1.50015 0 0 0 -0.04687,-0.002 z"
           id="path965"
           inkscape:connector-curvature="0" />
      </g>
      <path
         inkscape:connector-curvature="0"
         id="path997"
         d="m 63,29.699219 c 0.675705,0 0.801197,0.141354 1.142578,0.27539 0.341381,0.134036 0.734816,0.311548 1.197266,0.53125 0.924899,0.439405 2.115904,1.049352 3.496094,1.785157 2.760379,1.47161 6.268374,3.438799 9.753906,5.451172 3.485532,2.012372 6.943014,4.067902 9.597656,5.722656 1.327321,0.827377 2.451937,1.553482 3.294922,2.134765 0.421493,0.290642 0.771824,0.542858 1.058594,0.771485 0.286769,0.228627 0.472694,0.266385 0.810546,0.851562 0.337852,0.585177 0.27742,0.76429 0.332032,1.126953 0.05461,0.362663 0.09771,0.790437 0.138672,1.300782 0.08191,1.020688 0.148302,2.358693 0.201172,3.921875 0.105738,3.126364 0.158203,7.147129 0.158203,11.171875 0,4.024745 -0.05246,8.047464 -0.158203,11.173828 -0.05287,1.563182 -0.119259,2.901186 -0.201172,3.921875 -0.04096,0.510344 -0.08406,0.938118 -0.138672,1.300781 -0.05461,0.362663 0.0058,0.541776 -0.332032,1.126953 -0.337852,0.585177 -0.523777,0.622936 -0.810546,0.851563 -0.28677,0.228627 -0.637101,0.480842 -1.058594,0.771484 -0.842985,0.581284 -1.967601,1.307389 -3.294922,2.134766 -2.654642,1.654754 -6.112124,3.710283 -9.597656,5.722656 -3.485532,2.012373 -6.993526,3.977609 -9.753906,5.449219 -1.380191,0.735805 -2.571195,1.347704 -3.496094,1.787109 -0.46245,0.219702 -0.855884,0.397214 -1.197266,0.53125 -0.341381,0.134036 -0.466874,0.275391 -1.142578,0.275391 -0.675705,0 -0.799244,-0.141355 -1.140625,-0.275391 -0.341381,-0.134036 -0.736769,-0.311548 -1.199219,-0.53125 -0.924899,-0.439405 -2.11395,-1.051304 -3.49414,-1.787109 -2.76038,-1.47161 -6.270328,-3.436846 -9.75586,-5.449219 -3.485532,-2.012373 -6.943014,-4.067902 -9.597656,-5.722656 -1.327321,-0.827377 -2.451937,-1.553482 -3.294922,-2.134766 -0.421493,-0.290642 -0.771824,-0.542857 -1.058594,-0.771484 -0.286769,-0.228627 -0.470741,-0.266386 -0.808593,-0.851563 -0.337853,-0.585177 -0.27742,-0.76429 -0.332032,-1.126953 -0.05461,-0.362663 -0.09967,-0.790437 -0.140625,-1.300781 -0.08191,-1.020689 -0.146349,-2.358693 -0.199218,-3.921875 -0.105739,-3.126364 -0.158204,-7.149083 -0.158204,-11.173828 0,-4.024746 0.05246,-8.045511 0.158204,-11.171875 0.05287,-1.563182 0.117305,-2.901187 0.199218,-3.921875 0.04096,-0.510345 0.08601,-0.938119 0.140625,-1.300782 0.05461,-0.362663 -0.0058,-0.541775 0.332032,-1.126953 0.337852,-0.585177 0.521824,-0.622935 0.808593,-0.851562 0.28677,-0.228627 0.637101,-0.480843 1.058594,-0.771485 0.842985,-0.581283 1.967601,-1.307388 3.294922,-2.134765 2.654642,-1.654754 6.112124,-3.710284 9.597656,-5.722656 3.485532,-2.012373 6.99548,-3.979562 9.75586,-5.451172 1.38019,-0.735805 2.571194,-1.345752 3.496093,-1.785157 0.46245,-0.219702 0.855885,-0.397214 1.197266,-0.53125 0.341381,-0.134036 0.464921,-0.27539 1.140625,-0.27539 z m 0,3.05664 c -0.01856,0.0059 -0.02656,0.0045 -0.04492,0.01172 -0.232009,0.09109 -0.580561,0.245213 -1.005859,0.447266 -0.850597,0.404105 -2.016535,1.001428 -3.373047,1.724609 -2.713024,1.446363 -6.203114,3.401084 -9.666016,5.400391 -3.462901,1.999307 -6.902619,4.045509 -9.511718,5.671875 -1.30455,0.813182 -2.402471,1.522054 -3.177735,2.05664 -0.387632,0.267293 -0.695731,0.493059 -0.890625,0.648438 -0.01517,0.01209 -0.01712,0.02028 -0.03125,0.0332 -0.0043,0.01935 -0.01068,0.02504 -0.01367,0.04492 -0.03712,0.246473 -0.07952,0.626357 -0.117187,1.095703 -0.07533,0.938691 -0.139444,2.244886 -0.191407,3.78125 -0.103924,3.072729 -0.15625,7.073652 -0.15625,11.072266 0,3.998614 0.05233,7.999536 0.15625,11.072265 0.05196,1.536365 0.116074,2.844512 0.191407,3.783203 0.03767,0.469346 0.08007,0.849231 0.117187,1.095703 0.003,0.01988 0.0094,0.02557 0.01367,0.04492 0.01413,0.01292 0.01608,0.02111 0.03125,0.0332 0.194894,0.155379 0.502993,0.379191 0.890625,0.646484 0.775264,0.534586 1.873185,1.245411 3.177735,2.058594 2.609099,1.626365 6.048817,3.672568 9.511718,5.671875 3.462902,1.999307 6.952993,3.954027 9.666016,5.40039 1.356512,0.723182 2.52245,1.320504 3.373047,1.72461 0.425298,0.202052 0.77385,0.356172 1.005859,0.447265 0.01836,0.0072 0.02636,0.0059 0.04492,0.01172 0.01868,-0.0059 0.02644,-0.0045 0.04492,-0.01172 0.232009,-0.09109 0.582514,-0.245213 1.007812,-0.447265 0.850598,-0.404106 2.014582,-1.001428 3.371094,-1.72461 2.713024,-1.446363 6.203114,-3.401083 9.666016,-5.40039 3.462901,-1.999307 6.902619,-4.04551 9.511718,-5.671875 1.30455,-0.813183 2.402471,-1.524008 3.177735,-2.058594 0.387632,-0.267293 0.695731,-0.491105 0.890625,-0.646484 0.01601,-0.01277 0.01835,-0.02149 0.0332,-0.03516 0.0041,-0.01858 0.0108,-0.02392 0.01367,-0.04297 0.03712,-0.246472 0.07757,-0.626357 0.115234,-1.095703 0.07533,-0.938691 0.141398,-2.246838 0.19336,-3.783203 0.103924,-3.072728 0.15625,-7.073651 0.15625,-11.072265 0,-3.998614 -0.05233,-7.999537 -0.15625,-11.072266 -0.05196,-1.536364 -0.118027,-2.842559 -0.19336,-3.78125 -0.03767,-0.469346 -0.07812,-0.84923 -0.115234,-1.095703 -0.0029,-0.01905 -0.0096,-0.02439 -0.01367,-0.04297 -0.01485,-0.01367 -0.01719,-0.02239 -0.0332,-0.03516 C 90.475026,48.561399 90.166927,48.335633 89.779295,48.06834 89.004031,47.533754 87.90611,46.824882 86.60156,46.0117 83.992461,44.385334 80.552743,42.339132 77.089842,40.339825 73.62694,38.340518 70.136849,36.385797 67.423826,34.939434 66.067314,34.216252 64.903329,33.61893 64.052732,33.214825 63.627434,33.012772 63.276929,32.858653 63.04492,32.767559 63.02644,32.760259 63.01868,32.761759 63,32.755839 Z"
         style="color:#000000;font-style:normal;font-variant:normal;font-weight:normal;font-stretch:normal;font-size:medium;line-height:normal;font-family:sans-serif;font-variant-ligatures:normal;font-variant-position:normal;font-variant-caps:normal;font-variant-numeric:normal;font-variant-alternates:normal;font-feature-settings:normal;text-indent:0;text-align:start;text-decoration:none;text-decoration-line:none;text-decoration-style:solid;text-decoration-color:#000000;letter-spacing:normal;word-spacing:normal;text-transform:none;writing-mode:lr-tb;direction:ltr;text-orientation:mixed;dominant-baseline:auto;baseline-shift:baseline;text-anchor:start;white-space:normal;shape-padding:0;clip-rule:nonzero;display:inline;overflow:visible;visibility:visible;opacity:1;isolation:auto;mix-blend-mode:normal;color-interpolation:sRGB;color-interpolation-filters:linearRGB;solid-color:#000000;solid-opacity:1;vector-effect:none;fill:#8bc34a;fill-opacity:1;fill-rule:nonzero;stroke:none;stroke-width:3;stroke-linecap:round;stroke-linejoin:bevel;stroke-miterlimit:4;stroke-dasharray:none;stroke-dashoffset:0;stroke-opacity:1;paint-order:normal;color-rendering:auto;image-rendering:auto;shape-rendering:auto;text-rendering:auto;enable-background:accumulate" />
      <circle
         transform="scale(-1,1)"
         r="1.9338562"
         cy="64.745003"
         cx="-76.758644"
         id="path1059"
         style="fill:#8bc34a;fill-opacity:1;stroke:none;stroke-width:3;stroke-linecap:round;stroke-linejoin:bevel;stroke-miterlimit:4;stroke-dasharray:none;stroke-opacity:1;paint-order:normal" />
      <circle
         transform="scale(-1,1)"
         style="fill:#8bc34a;fill-opacity:1;stroke:none;stroke-width:3;stroke-linecap:round;stroke-linejoin:bevel;stroke-miterlimit:4;stroke-dasharray:none;stroke-opacity:1;paint-order:normal"
         id="circle1061"
         cx="-49.241962"
         cy="64.745003"
         r="1.9338562" />
    </g>
  </g>
  <g
     inkscape:groupmode="layer"
     id="layer2"
     inkscape:label="invisibles"
     style="display:none"
     transform="translate(-24.020059,-25.764762)">
    <rect
       inkscape:transform-center-x="0.10198172"
       y="76.162231"
       x="54.160843"
       height="0.43342233"
       width="0.43342233"
       id="rect934"
       style="display:inline;fill:#000000;fill-opacity:1;stroke:none;stroke-width:1.20623648;stroke-linecap:round;stroke-linejoin:bevel;stroke-miterlimit:4;stroke-dasharray:none;stroke-opacity:1;paint-order:stroke fill markers" />
    <rect
       style="display:inline;fill:#000000;fill-opacity:1;stroke:none;stroke-width:1.20623648;stroke-linecap:round;stroke-linejoin:bevel;stroke-miterlimit:4;stroke-dasharray:none;stroke-opacity:1;paint-order:stroke fill markers"
       id="rect918"
       width="0.43342233"
       height="0.43342233"
       x="73.096085"
       y="37.477268"
       inkscape:transform-center-x="0.088316186"
       transform="rotate(30)"
       inkscape:transform-center-y="-0.050990491" />
    <rect
       inkscape:transform-center-x="0.10198172"
       y="68.946236"
       x="43.914303"
       height="0.43342233"
       width="0.43342233"
       id="rect916"
       style="display:inline;fill:#000000;fill-opacity:1;stroke:none;stroke-width:1.20623648;stroke-linecap:round;stroke-linejoin:bevel;stroke-miterlimit:4;stroke-dasharray:none;stroke-opacity:1;paint-order:stroke fill markers" />
    <rect
       style="display:inline;fill:#000000;fill-opacity:1;stroke:none;stroke-width:1.20623648;stroke-linecap:round;stroke-linejoin:bevel;stroke-miterlimit:4;stroke-dasharray:none;stroke-opacity:1;paint-order:stroke fill markers"
       id="rect908"
       width="0.43342233"
       height="0.43342233"
       x="43.910923"
       y="52.75069"
       inkscape:transform-center-x="0.10198172" />
    <rect
       inkscape:transform-center-x="0.088316815"
       y="17.996603"
       x="73.09108"
       height="0.43342233"
       width="0.43342233"
       id="rect914"
       style="display:inline;fill:#000000;fill-opacity:1;stroke:none;stroke-width:1.20623648;stroke-linecap:round;stroke-linejoin:bevel;stroke-miterlimit:4;stroke-dasharray:none;stroke-opacity:1;paint-order:stroke fill markers"
       transform="rotate(30)"
       inkscape:transform-center-y="-0.050990295" />
    <path
       inkscape:connector-curvature="0"
       id="path824"
       d="M 115.32065,55.328804 V 79.002715"
       style="display:inline;fill:none;stroke:#000000;stroke-width:3;stroke-linecap:butt;stroke-linejoin:miter;stroke-miterlimit:4;stroke-dasharray:none;stroke-opacity:1" />
    <path
       style="display:inline;fill:none;stroke:#000000;stroke-width:3;stroke-linecap:butt;stroke-linejoin:miter;stroke-miterlimit:4;stroke-dasharray:none;stroke-opacity:1"
       d="m 109.85055,69.85598 v 9.057065"
       id="path826"
       inkscape:connector-curvature="0" />
    <g
       id="g1023"
       style="display:inline;stroke:#f44336;stroke-opacity:1">
      <path
         d="m 54.160843,59.963202 -9.95271,17.248608 m 9.95271,-17.248608 v 16.632455"
         style="display:inline;fill:none;stroke:#f44336;stroke-width:0.26458332px;stroke-linecap:round;stroke-linejoin:miter;stroke-opacity:1"
         id="path957"
         inkscape:connector-curvature="0" />
      <path
         inkscape:connector-curvature="0"
         id="path959"
         style="display:inline;fill:none;stroke:#f44336;stroke-width:0.26458332px;stroke-linecap:round;stroke-linejoin:miter;stroke-opacity:1"
         d="m 44.347719,69.379663 9.95271,-17.248608 m -9.95271,17.248608 V 52.747208" />
      <path
         inkscape:connector-curvature="0"
         id="path967"
         style="display:inline;fill:none;stroke:#f44336;stroke-width:0.26458332px;stroke-linecap:round;stroke-linejoin:miter;stroke-opacity:1"
         d="m 81.677521,59.963202 -9.95271,17.248608 m 9.95271,-17.248608 v 16.632455" />
      <path
         d="m 71.864397,69.379663 9.95271,-17.248608 m -9.95271,17.248608 V 52.747208"
         style="display:inline;fill:none;stroke:#f44336;stroke-width:0.26458332px;stroke-linecap:round;stroke-linejoin:miter;stroke-opacity:1"
         id="path969"
         inkscape:connector-curvature="0" />
    </g>
    <g
       style="display:inline"
       id="g949">
      <path
         inkscape:connector-curvature="0"
         id="path879"
         d="m 42.392578,51.386719 a 1.50015,1.50015 0 0 0 -1.476562,1.521484 v 18.076172 l -1.730469,-2.996094 a 1.50015,1.50015 0 1 0 -2.597656,1.5 l 4.414062,7.642578 0.002,0.0059 a 1.50015,1.50015 0 0 0 0.847656,0.855469 1.50015,1.50015 0 0 0 0.125,0.04492 1.50015,1.50015 0 0 0 0.06836,0.01758 1.50015,1.50015 0 0 0 0.06641,0.01562 1.50015,1.50015 0 0 0 0.119141,0.01953 1.50015,1.50015 0 0 0 0.01172,0.002 1.50015,1.50015 0 0 0 0.0039,0 1.50015,1.50015 0 0 0 0.238281,0.0078 1.50015,1.50015 0 0 0 0.148437,-0.01367 1.50015,1.50015 0 0 0 0.142579,-0.02734 1.50015,1.50015 0 0 0 0.0059,-0.002 1.50015,1.50015 0 0 0 0.02344,-0.0078 1.50015,1.50015 0 0 0 0.08984,-0.02539 1.50015,1.50015 0 0 0 0.259766,-0.115235 1.50015,1.50015 0 0 0 0.666015,-0.757812 l 4.423829,-7.66211 a 1.5006642,1.5006642 0 1 0 -2.59961,-1.5 l -1.728515,2.994141 V 52.908203 a 1.50015,1.50015 0 0 0 -1.523438,-1.521484 z"
         style="color:#000000;font-style:normal;font-variant:normal;font-weight:normal;font-stretch:normal;font-size:medium;line-height:normal;font-family:sans-serif;font-variant-ligatures:normal;font-variant-position:normal;font-variant-caps:normal;font-variant-numeric:normal;font-variant-alternates:normal;font-feature-settings:normal;text-indent:0;text-align:start;text-decoration:none;text-decoration-line:none;text-decoration-style:solid;text-decoration-color:#000000;letter-spacing:normal;word-spacing:normal;text-transform:none;writing-mode:lr-tb;direction:ltr;text-orientation:mixed;dominant-baseline:auto;baseline-shift:baseline;text-anchor:start;white-space:normal;shape-padding:0;clip-rule:nonzero;display:inline;overflow:visible;visibility:visible;opacity:1;isolation:auto;mix-blend-mode:normal;color-interpolation:sRGB;color-interpolation-filters:linearRGB;solid-color:#000000;solid-opacity:1;vector-effect:none;fill:#000000;fill-opacity:1;fill-rule:nonzero;stroke:none;stroke-width:3;stroke-linecap:round;stroke-linejoin:miter;stroke-miterlimit:4;stroke-dasharray:none;stroke-dashoffset:0;stroke-opacity:1;color-rendering:auto;image-rendering:auto;shape-rendering:auto;text-rendering:auto;enable-background:accumulate" />
      <path
         inkscape:connector-curvature="0"
         id="path892"
         d="m 56.060547,51.386719 a 1.50015,1.50015 0 0 0 -0.04492,0.0039 1.50015,1.50015 0 0 0 -0.03125,0.002 1.50015,1.50015 0 0 0 -0.02734,0.002 1.50015,1.50015 0 0 0 -0.0918,0.0098 1.50015,1.50015 0 0 0 -0.136718,0.02539 1.50015,1.50015 0 0 0 -0.08594,0.02539 1.50015,1.50015 0 0 0 -0.02734,0.0078 1.50015,1.50015 0 0 0 -0.136718,0.05078 1.50015,1.50015 0 0 0 -0.132813,0.06641 1.50015,1.50015 0 0 0 -0.669922,0.767578 l -4.419922,7.654297 a 1.50015,1.50015 0 1 0 2.597657,1.5 l 1.730468,-2.996094 v 18.076172 a 1.50015,1.50015 0 1 0 3,0 v -18.07433 l 1.728516,2.994141 a 1.5006638,1.5006638 0 1 0 2.599609,-1.5 l -4.414062,-7.644531 a 1.50015,1.50015 0 0 0 -0.714844,-0.798828 1.50015,1.50015 0 0 0 -0.136719,-0.0625 1.50015,1.50015 0 0 0 -0.136718,-0.04687 1.50015,1.50015 0 0 0 -0.0039,-0.002 1.50015,1.50015 0 0 0 -0.101562,-0.02539 1.50015,1.50015 0 0 0 -0.01367,-0.002 1.50015,1.50015 0 0 0 -0.121094,-0.01953 1.50015,1.50015 0 0 0 -0.01172,-0.002 1.50015,1.50015 0 0 0 -0.0039,0 1.50015,1.50015 0 0 0 -0.146484,-0.0098 1.50015,1.50015 0 0 0 -0.04687,-0.002 z"
         style="color:#000000;font-style:normal;font-variant:normal;font-weight:normal;font-stretch:normal;font-size:medium;line-height:normal;font-family:sans-serif;font-variant-ligatures:normal;font-variant-position:normal;font-variant-caps:normal;font-variant-numeric:normal;font-variant-alternates:normal;font-feature-settings:normal;text-indent:0;text-align:start;text-decoration:none;text-decoration-line:none;text-decoration-style:solid;text-decoration-color:#000000;letter-spacing:normal;word-spacing:normal;text-transform:none;writing-mode:lr-tb;direction:ltr;text-orientation:mixed;dominant-baseline:auto;baseline-shift:baseline;text-anchor:start;white-space:normal;shape-padding:0;clip-rule:nonzero;display:inline;overflow:visible;visibility:visible;opacity:1;isolation:auto;mix-blend-mode:normal;color-interpolation:sRGB;color-interpolation-filters:linearRGB;solid-color:#000000;solid-opacity:1;vector-effect:none;fill:#000000;fill-opacity:1;fill-rule:nonzero;stroke:none;stroke-width:3;stroke-linecap:round;stroke-linejoin:miter;stroke-miterlimit:4;stroke-dasharray:none;stroke-dashoffset:0;stroke-opacity:1;color-rendering:auto;image-rendering:auto;shape-rendering:auto;text-rendering:auto;enable-background:accumulate" />
      <path
         inkscape:connector-curvature="0"
         id="path936"
         style="display:inline;fill:none;stroke:#000000;stroke-width:0.26458332px;stroke-linecap:round;stroke-linejoin:miter;stroke-opacity:1"
         d="m 54.160843,59.963202 -9.95271,17.248608 m 9.95271,-17.248608 v 16.632455" />
      <path
         d="m 44.347719,69.379663 9.95271,-17.248608 m -9.95271,17.248608 V 52.747208"
         style="display:inline;fill:none;stroke:#000000;stroke-width:0.26458332px;stroke-linecap:round;stroke-linejoin:miter;stroke-opacity:1"
         id="path930"
         inkscape:connector-curvature="0" />
    </g>
    <circle
       transform="translate(31.820312,29.699219)"
       style="fill:#ffffff;fill-opacity:1;stroke:#000000;stroke-width:0.2;stroke-linecap:round;stroke-linejoin:miter;stroke-miterlimit:4;stroke-dasharray:none;stroke-opacity:1;paint-order:markers stroke fill"
       id="path848"
       cx="31.179987"
       cy="35.04578"
       r="38.681213" />
  </g>
</svg>
